<?xml version="1.0" encoding="UTF-8"?>
<svg id="Layer_1" data-name="Layer 1" xmlns="http://www.w3.org/2000/svg" viewBox="0 0 613 320">
  <defs>
    <style>
      .cls-1 {
        fill: #034ea1;
      }

      .cls-2 {
        fill: #00b7ac;
      }

      .cls-3 {
        fill: #686969;
      }
    </style>
  </defs>
  <g>
    <path class="cls-1" d="m18.03,26.43v6.83h.18c3.47-5.27,8.48-7.91,15.01-7.91,2.88,0,5.48.6,7.82,1.8,2.34,1.2,3.99,3.23,4.94,6.11,1.55-2.52,3.61-4.46,6.16-5.85,2.55-1.38,5.35-2.07,8.4-2.07,2.34,0,4.45.26,6.34.76,1.88.51,3.51,1.31,4.85,2.39,1.35,1.08,2.4,2.47,3.14,4.18.75,1.71,1.12,3.76,1.12,6.16v34.07s-7.64,0-7.64,0v-30.47c0-1.44-.12-2.79-.36-4.05-.24-1.26-.69-2.35-1.35-3.28-.66-.93-1.57-1.66-2.74-2.2-1.17-.54-2.68-.81-4.54-.81-3.78,0-6.74,1.08-8.9,3.23-2.16,2.16-3.23,5.03-3.23,8.63v28.94s-7.64,0-7.64,0v-30.47c0-1.5-.14-2.88-.4-4.14-.27-1.26-.74-2.35-1.39-3.28-.66-.93-1.54-1.65-2.65-2.16-1.11-.51-2.54-.77-4.27-.77-2.22,0-4.12.45-5.71,1.35-1.59.9-2.88,1.98-3.86,3.23-.99,1.26-1.71,2.56-2.16,3.91-.45,1.35-.68,2.47-.68,3.37v28.94s-7.64,0-7.64,0V26.43s7.19,0,7.19,0Z"/>
    <path class="cls-1" d="m120.79,73.89c-1.98,0-3.55-.55-4.72-1.66-1.17-1.11-1.75-2.92-1.75-5.44-2.1,2.51-4.54,4.33-7.32,5.44-2.79,1.11-5.8,1.66-9.04,1.66-2.1,0-4.08-.22-5.93-.67-1.86-.45-3.49-1.2-4.9-2.24-1.41-1.05-2.51-2.4-3.32-4.05-.81-1.65-1.22-3.64-1.22-5.98,0-2.64.45-4.79,1.35-6.47.9-1.67,2.08-3.04,3.55-4.09,1.47-1.05,3.15-1.84,5.03-2.38,1.89-.54,3.82-.99,5.8-1.35,2.1-.42,4.09-.73,5.98-.94,1.89-.21,3.55-.51,4.99-.9,1.44-.39,2.58-.96,3.42-1.71.84-.75,1.26-1.85,1.26-3.28,0-1.68-.32-3.02-.94-4.05-.63-1.02-1.44-1.8-2.43-2.33-.99-.54-2.1-.9-3.32-1.08-1.23-.18-2.44-.27-3.64-.27-3.24,0-5.93.62-8.09,1.84-2.16,1.23-3.32,3.55-3.51,6.97h-7.64c.12-2.88.72-5.3,1.8-7.28,1.08-1.98,2.52-3.58,4.31-4.81,1.8-1.23,3.86-2.11,6.2-2.65,2.34-.54,4.8-.81,7.37-.81,2.1,0,4.18.15,6.25.45,2.07.3,3.94.92,5.62,1.84,1.67.93,3.02,2.23,4.05,3.91,1.02,1.68,1.53,3.87,1.53,6.56v23.91c0,1.8.11,3.12.32,3.96.21.84.91,1.25,2.11,1.25.66,0,1.44-.15,2.34-.45v5.93c-1.32.78-3.15,1.17-5.48,1.17m-10.7-23.42c-1.56.33-3.19.6-4.9.81-1.71.21-3.43.45-5.17.72-1.74.27-3.3.7-4.68,1.3-1.38.6-2.5,1.45-3.37,2.56-.87,1.11-1.3,2.62-1.3,4.54,0,1.26.25,2.32.77,3.19.51.87,1.17,1.57,1.98,2.11.81.54,1.77.93,2.88,1.17,1.11.24,2.23.36,3.37.36,2.51,0,4.67-.34,6.47-1.03,1.8-.69,3.27-1.56,4.41-2.61,1.14-1.05,1.98-2.19,2.52-3.42.54-1.23.81-2.38.81-3.46v-7.82c-.96.72-2.22,1.24-3.77,1.57"/>
    <path class="cls-1" d="m138.59,26.43v7.37h.18c3.18-5.63,8.21-8.45,15.1-8.45,3.06,0,5.6.42,7.64,1.26,2.04.84,3.69,2.01,4.94,3.51,1.26,1.5,2.14,3.28,2.65,5.35.51,2.07.76,4.36.76,6.88v30.56s-7.64,0-7.64,0v-31.46c0-2.88-.84-5.15-2.52-6.83-1.68-1.67-3.99-2.52-6.92-2.52-2.34,0-4.36.36-6.07,1.08-1.71.72-3.13,1.74-4.27,3.06-1.14,1.32-1.99,2.87-2.56,4.63-.57,1.77-.85,3.7-.85,5.8v26.25s-7.64,0-7.64,0V26.43s7.19,0,7.19,0Z"/>
    <path class="cls-1" d="m179.11,8.72h7.64v9.35s-7.64,0-7.64,0v-9.35Zm7.64,64.18h-7.64V26.43s7.64,0,7.64,0v46.47Z"/>
    <path class="cls-1" d="m203.79,26.43v6.29h.18c1.26-2.57,3.23-4.45,5.93-5.62,2.7-1.17,5.66-1.75,8.9-1.75,3.6,0,6.73.66,9.4,1.98,2.66,1.32,4.88,3.1,6.65,5.35,1.77,2.25,3.1,4.84,4,7.78.9,2.94,1.35,6.05,1.35,9.35,0,3.3-.44,6.41-1.3,9.35-.87,2.94-2.19,5.5-3.95,7.69-1.77,2.19-3.99,3.91-6.65,5.17-2.67,1.26-5.77,1.89-9.3,1.89-1.14,0-2.41-.12-3.82-.36-1.41-.24-2.8-.63-4.18-1.17-1.38-.54-2.68-1.27-3.91-2.2-1.23-.93-2.26-2.08-3.1-3.46h-.18v23.91s-7.64,0-7.64,0V26.43s7.64,0,7.64,0Zm27.46,16.5c-.57-2.07-1.44-3.91-2.61-5.53-1.17-1.62-2.66-2.91-4.49-3.86-1.83-.96-3.97-1.44-6.43-1.44s-4.76.51-6.56,1.53c-1.8,1.02-3.27,2.35-4.41,4-1.14,1.65-1.96,3.52-2.47,5.62-.51,2.1-.76,4.22-.76,6.38,0,2.28.27,4.48.81,6.61.54,2.13,1.39,4,2.56,5.62,1.17,1.62,2.68,2.92,4.54,3.91,1.86.99,4.1,1.48,6.74,1.48s4.84-.51,6.61-1.53c1.77-1.02,3.19-2.37,4.27-4.04,1.08-1.68,1.85-3.6,2.33-5.75.48-2.16.72-4.38.72-6.65,0-2.16-.29-4.27-.86-6.34"/>
    <path class="cls-1" d="m282.41,73.89c-1.98,0-3.55-.55-4.72-1.66-1.17-1.11-1.75-2.92-1.75-5.44-2.1,2.51-4.54,4.33-7.32,5.44-2.79,1.11-5.8,1.66-9.03,1.66-2.1,0-4.08-.22-5.94-.67-1.86-.45-3.49-1.2-4.9-2.24-1.41-1.05-2.51-2.4-3.32-4.05-.81-1.65-1.22-3.64-1.22-5.98,0-2.64.45-4.79,1.35-6.47.9-1.67,2.08-3.04,3.55-4.09,1.47-1.05,3.14-1.84,5.03-2.38,1.89-.54,3.82-.99,5.8-1.35,2.1-.42,4.09-.73,5.98-.94,1.89-.21,3.55-.51,4.99-.9,1.44-.39,2.58-.96,3.42-1.71.84-.75,1.26-1.85,1.26-3.28,0-1.68-.31-3.02-.94-4.05-.63-1.02-1.44-1.8-2.43-2.34-.99-.54-2.1-.9-3.33-1.08-1.23-.18-2.44-.27-3.64-.27-3.24,0-5.93.62-8.09,1.84-2.15,1.23-3.32,3.55-3.51,6.97h-7.64c.12-2.88.72-5.3,1.8-7.28,1.08-1.98,2.52-3.58,4.32-4.81,1.8-1.23,3.86-2.11,6.2-2.65,2.34-.54,4.8-.81,7.37-.81,2.1,0,4.18.15,6.25.45,2.07.3,3.94.92,5.62,1.84,1.68.93,3.02,2.23,4.04,3.91,1.02,1.68,1.53,3.87,1.53,6.56v23.91c0,1.8.1,3.12.31,3.96.21.84.91,1.25,2.11,1.25.66,0,1.44-.15,2.34-.45v5.93c-1.32.78-3.14,1.17-5.48,1.17m-10.69-23.42c-1.56.33-3.19.6-4.9.81-1.71.21-3.43.45-5.17.72-1.74.27-3.3.7-4.67,1.3-1.38.6-2.5,1.45-3.37,2.56-.87,1.11-1.3,2.62-1.3,4.54,0,1.26.25,2.32.76,3.19.51.87,1.17,1.57,1.98,2.11.81.54,1.77.93,2.88,1.17,1.11.24,2.23.36,3.37.36,2.52,0,4.68-.34,6.47-1.03,1.8-.69,3.27-1.56,4.41-2.61,1.14-1.05,1.98-2.19,2.52-3.42.54-1.23.81-2.38.81-3.46v-7.82c-.96.72-2.22,1.24-3.77,1.57"/>
    <rect class="cls-1" x="293.37" y="8.72" width="7.64" height="64.18"/>
  </g>
  <g>
    <path class="cls-3" d="m35.53,306.59h.08l6.14-25.44h2.73l-7.39,29.35h-2.93l-6.53-25.93h-.08l-6.53,25.93h-2.93l-7.27-29.35h2.66l6.06,25.44h.08l6.52-25.44h2.97l6.41,25.44Z"/>
    <path class="cls-3" d="m48.62,310.5v-29.35h2.66v29.35h-2.66Z"/>
    <path class="cls-3" d="m55.45,281.15h20.47v2.36h-8.91v26.99h-2.66v-26.99h-8.91v-2.36Z"/>
    <path class="cls-3" d="m79.61,310.5v-29.35h2.66v12.6h16.65v-12.6h2.66v29.35h-2.66v-14.39h-16.65v14.39h-2.66Z"/>
    <path class="cls-3" d="m127.36,295.29l8.48-14.15h3.09l-10.2,16.55v12.8h-2.66v-12.6l-10.04-16.76h3.05l8.28,14.15Z"/>
    <path class="cls-3" d="m139.46,295.87c0-2.15.28-4.16.84-6.03.56-1.88,1.39-3.51,2.48-4.91,1.09-1.4,2.45-2.51,4.06-3.32,1.61-.82,3.48-1.22,5.59-1.22s4.11.4,5.76,1.2c1.65.8,3.03,1.9,4.14,3.3,1.11,1.4,1.94,3.04,2.5,4.93.56,1.89.84,3.91.84,6.05s-.28,4.11-.84,5.97c-.56,1.86-1.39,3.49-2.48,4.89-1.09,1.4-2.46,2.51-4.1,3.32-1.64.82-3.54,1.22-5.7,1.22s-4.06-.41-5.7-1.22c-1.64-.82-3.01-1.92-4.1-3.32-1.09-1.4-1.91-3.03-2.46-4.89-.55-1.86-.82-3.85-.82-5.97Zm13.13,13.05c1.82,0,3.39-.36,4.71-1.08,1.31-.72,2.4-1.68,3.24-2.87.85-1.2,1.47-2.58,1.88-4.16.4-1.58.61-3.22.61-4.93,0-2.04-.24-3.87-.72-5.48-.48-1.62-1.18-3-2.09-4.14-.91-1.14-2.02-2.01-3.32-2.61-1.3-.6-2.76-.9-4.38-.9-1.8,0-3.35.37-4.67,1.1-1.31.73-2.4,1.71-3.24,2.92-.85,1.21-1.47,2.6-1.88,4.18-.4,1.58-.61,3.22-.61,4.93s.2,3.4.61,4.97c.4,1.58,1.03,2.96,1.88,4.16.85,1.2,1.93,2.15,3.24,2.85s2.9,1.06,4.75,1.06Z"/>
    <path class="cls-3" d="m170.69,281.15h2.66v17.49c0,3.64.65,6.26,1.95,7.87,1.3,1.6,3.4,2.41,6.29,2.41,1.51,0,2.79-.21,3.85-.63s1.91-1.06,2.56-1.92c.65-.86,1.12-1.92,1.41-3.2.29-1.28.43-2.79.43-4.53v-17.49h2.66v18.3c0,3.83-.9,6.76-2.71,8.79-1.81,2.03-4.54,3.04-8.19,3.04s-6.41-1.03-8.21-3.1c-1.8-2.06-2.7-4.97-2.7-8.72v-18.3Z"/>
    <path class="cls-3" d="m207.15,310.5l11.06-29.35h3.01l10.78,29.35h-2.73l-3.24-9.21h-12.82l-3.32,9.21h-2.73Zm6.96-11.58h11.02l-5.51-15.41-5.51,15.41Z"/>
    <path class="cls-3" d="m229.88,281.15h20.47v2.36h-8.91v26.99h-2.66v-26.99h-8.91v-2.36Z"/>
    <path class="cls-3" d="m265.01,310.5v-29.35h18.72v2.36h-16.06v10.6h14.5v2.36h-14.5v11.66h16.45v2.36h-19.11Z"/>
    <path class="cls-3" d="m286.89,281.15h2.77l8.48,26.09,8.44-26.09h2.77l-9.77,29.35h-2.93l-9.77-29.35Z"/>
    <path class="cls-3" d="m313.12,310.5v-29.35h18.72v2.36h-16.06v10.6h14.5v2.36h-14.5v11.66h16.45v2.36h-19.11Z"/>
    <path class="cls-3" d="m339.06,297.17v13.33l-2.66-.04v-29.31h11.02c3.1,0,5.47.6,7.11,1.81,1.64,1.21,2.46,3.17,2.46,5.89,0,1.85-.36,3.32-1.07,4.4-.72,1.09-1.88,2.01-3.5,2.77.83.3,1.48.73,1.95,1.31.47.57.82,1.22,1.06,1.96.23.73.38,1.51.45,2.32.06.82.11,1.6.14,2.36.03,1.12.07,2.04.14,2.77.06.73.14,1.33.23,1.79s.2.82.33,1.08c.13.26.29.46.47.59v.24l-2.93.04c-.29-.49-.49-1.17-.61-2.04-.12-.87-.21-1.78-.27-2.73-.07-.95-.12-1.88-.16-2.77-.04-.9-.11-1.63-.22-2.2-.16-.79-.41-1.42-.76-1.9-.35-.48-.77-.84-1.27-1.08-.49-.25-1.05-.41-1.66-.49-.61-.08-1.24-.12-1.89-.12h-8.36Zm8.28-2.36c.99,0,1.91-.11,2.75-.33.85-.22,1.58-.56,2.21-1.04s1.12-1.08,1.48-1.81c.36-.73.55-1.62.55-2.65,0-1.09-.19-1.98-.57-2.69-.38-.71-.89-1.26-1.52-1.67-.64-.41-1.37-.69-2.19-.86-.82-.16-1.67-.25-2.56-.25h-8.44v11.29h8.28Z"/>
    <path class="cls-3" d="m370.25,295.29l8.48-14.15h3.09l-10.2,16.55v12.8h-2.66v-12.6l-10.04-16.76h3.05l8.28,14.15Z"/>
    <path class="cls-3" d="m397.44,301.74c.1,1.31.38,2.41.84,3.32.46.91,1.04,1.65,1.76,2.22.72.57,1.54.99,2.48,1.24.94.26,1.94.39,3.01.39,1.25,0,2.33-.16,3.24-.49.91-.33,1.65-.77,2.23-1.32.57-.56,1-1.2,1.27-1.94.27-.73.41-1.51.41-2.32,0-1.14-.25-2.06-.74-2.77-.49-.71-1.14-1.28-1.93-1.73-.8-.45-1.71-.81-2.74-1.08-1.03-.27-2.08-.54-3.16-.79-1.08-.26-2.14-.56-3.17-.92-1.03-.35-1.94-.83-2.73-1.43-.8-.6-1.44-1.37-1.93-2.3-.49-.94-.74-2.13-.74-3.57,0-1,.2-1.98.61-2.94.4-.95,1-1.79,1.8-2.53.79-.73,1.79-1.32,2.99-1.75,1.2-.43,2.58-.65,4.14-.65s2.98.23,4.16.69c1.19.46,2.17,1.09,2.95,1.9.78.8,1.37,1.73,1.76,2.79.39,1.06.59,2.19.59,3.38h-2.54c0-1.11-.19-2.08-.57-2.89s-.89-1.48-1.54-2c-.65-.52-1.39-.9-2.23-1.14-.83-.24-1.69-.37-2.58-.37-1.35,0-2.49.2-3.42.59-.93.4-1.66.9-2.21,1.53-.55.63-.93,1.32-1.13,2.08-.21.76-.25,1.52-.12,2.28.16.95.52,1.71,1.09,2.28.57.57,1.28,1.04,2.11,1.41.83.37,1.75.67,2.76.9,1,.23,2.02.48,3.07.73,1.04.26,2.05.56,3.03.92.98.35,1.84.83,2.6,1.43.75.6,1.36,1.37,1.82,2.3.46.94.68,2.11.68,3.53,0,2.72-.9,4.82-2.7,6.32-1.8,1.49-4.32,2.24-7.58,2.24-1.46,0-2.81-.2-4.06-.59s-2.33-.99-3.24-1.79c-.91-.8-1.62-1.79-2.13-2.98-.51-1.18-.76-2.57-.76-4.18h2.58Z"/>
    <path class="cls-3" d="m417.15,281.15h20.48v2.36h-8.91v26.99h-2.66v-26.99h-8.91v-2.36Z"/>
    <path class="cls-3" d="m441.33,310.5v-29.35h18.72v2.36h-16.06v10.6h14.5v2.36h-14.5v11.66h16.45v2.36h-19.11Z"/>
    <path class="cls-3" d="m464.57,310.5v-29.35h10.28c1.82,0,3.33.22,4.51.65,1.18.43,2.12,1.03,2.81,1.79.69.76,1.17,1.64,1.45,2.63.27.99.41,2.03.41,3.12,0,1.63-.32,2.98-.96,4.04-.64,1.06-1.47,1.9-2.48,2.51-1.02.61-2.17,1.04-3.46,1.28-1.29.25-2.59.37-3.89.37h-6.02v12.96h-2.66Zm8.75-15.33c1.25,0,2.37-.08,3.36-.25.99-.16,1.83-.47,2.52-.92.69-.45,1.22-1.06,1.6-1.83s.57-1.79.57-3.04c0-1.85-.58-3.25-1.74-4.2-1.16-.95-3-1.43-5.53-1.43h-6.88v11.66h6.1Z"/>
  </g>
  <g>
    <g>
      <g>
        <polygon class="cls-1" points="271.03 188.14 271.03 234.06 234.06 188.14 226.84 188.14 226.84 249.77 235.65 249.77 235.65 203.85 272.62 249.77 279.84 249.77 279.84 188.14 271.03 188.14"/>
        <polygon class="cls-1" points="331.42 188.14 331.42 234.06 294.45 188.14 287.23 188.14 287.23 249.77 296.03 249.77 296.03 203.85 333.01 249.77 340.22 249.77 340.22 188.14 331.42 188.14"/>
        <polygon class="cls-1" points="356.42 242.11 356.42 222.21 387.32 222.21 387.32 214.73 356.42 214.73 356.42 195.8 391.1 195.8 391.1 188.14 347.61 188.14 347.61 249.77 392.33 249.77 392.33 242.11 356.42 242.11"/>
        <path class="cls-1" d="m437.65,240.83c-2.94,1.2-6.07,1.8-9.42,1.8s-6.68-.58-9.64-1.76c-2.96-1.17-5.53-2.82-7.7-4.93-2.17-2.11-3.86-4.62-5.06-7.53-1.2-2.91-1.81-6.06-1.81-9.46,0-3.4.6-6.56,1.81-9.46,1.2-2.9,2.89-5.41,5.06-7.53,2.17-2.11,4.74-3.76,7.7-4.93,2.96-1.17,6.18-1.76,9.64-1.76s6.48.6,9.42,1.81c2.93,1.2,5.57,3.04,7.92,5.5l5.72-5.54c-2.82-3.17-6.24-5.56-10.25-7.17-4.02-1.61-8.41-2.42-13.16-2.42s-9.02.78-12.98,2.33c-3.96,1.56-7.41,3.76-10.34,6.6-2.94,2.85-5.22,6.18-6.87,9.99-1.64,3.81-2.46,8.01-2.46,12.59s.82,8.77,2.47,12.59c1.64,3.81,3.92,7.14,6.82,9.99,2.91,2.85,6.34,5.05,10.3,6.6,3.96,1.56,8.29,2.33,12.98,2.33s9.23-.82,13.25-2.47c4.02-1.64,7.44-4.05,10.25-7.22l-5.72-5.55c-2.35,2.52-4.99,4.39-7.92,5.59Z"/>
        <polygon class="cls-1" points="505.16 195.8 505.16 188.14 454.19 188.14 454.19 195.8 475.32 195.8 475.32 249.77 484.04 249.77 484.03 195.8 505.16 195.8"/>
      </g>
      <g>
        <polygon class="cls-2" points="329.33 107.24 303.96 150.53 278.27 107.24 271.05 107.24 271.05 168.87 279.5 168.87 279.5 124.21 301.78 161.38 305.82 161.38 328.1 123.93 328.19 168.87 336.64 168.87 336.55 107.24 329.33 107.24"/>
        <path class="cls-2" d="m389.27,107.24v34.68c0,6.87-1.51,11.88-4.53,15.05-3.02,3.17-7.32,4.75-12.9,4.75s-9.79-1.58-12.81-4.75c-3.02-3.17-4.54-8.19-4.54-15.05v-34.68h-8.8v35.04c0,8.92,2.32,15.7,6.96,20.34,4.64,4.64,11.01,6.95,19.1,6.95s14.54-2.32,19.15-6.95c4.61-4.64,6.91-11.41,6.91-20.34v-35.04h-8.54Z"/>
        <polygon class="cls-2" points="451.15 107.24 451.15 153.16 414.17 107.24 406.95 107.24 406.96 168.87 415.76 168.87 415.76 122.95 452.73 168.87 459.95 168.87 459.95 107.24 451.15 107.24"/>
        <rect class="cls-2" x="468.88" y="107.24" width="8.8" height="61.62"/>
        <polygon class="cls-2" points="537.93 107.24 486.96 107.24 486.96 114.9 508.09 114.9 508.09 168.87 516.8 168.87 516.8 114.9 537.93 114.9 537.93 107.24"/>
        <polygon class="cls-2" points="602.16 107.24 593.45 107.24 573.65 139.75 553.92 107.24 544.5 107.24 568.98 147.41 568.98 168.87 577.69 168.87 577.69 147.54 602.16 107.24"/>
        <path class="cls-2" d="m254.72,107.24l-25.37,43.28-25.69-43.28h-7.22v46.64c2.98,1.6,5.81,3.44,8.45,5.52v-35.2s22.27,37.17,22.27,37.17h4.05l22.28-37.45.08,44.94h8.45l-.09-61.62h-7.22Z"/>
      </g>
    </g>
    <g>
      <path class="cls-2" d="m119.23,230.05c-11.71,8.45-26.16,12.75-41.15,11.72-30.9-2.12-55.94-27-58.26-57.88-1.33-17.69,4.57-34.57,16.6-47.54,11.88-12.8,28.67-20.14,46.07-20.14,11.4,0,22.25,3.03,31.68,8.55,1-2.75,2.28-5.39,3.85-7.88-11.03-6.32-23.69-9.69-36.82-9.46-39.49.7-71.05,33.42-70.35,72.93.68,38.81,32.83,70.38,71.65,70.38,15.06,0,29.49-4.76,41.45-13.27-1.75-2.34-3.33-4.82-4.72-7.41Z"/>
      <g>
        <g>
          <path class="cls-2" d="m171.19,160.81c-.32-.06-2.95-.41-1.17-.21-.47-.05-.92-.14-1.35-.25-5.08,3.91-11.66,5.95-18.79,5.03-10.94-1.42-19.84-10.05-21.63-20.93-1.18-7.17.7-13.96,4.57-19.22-2.05-1.74-3.64-3.97-4.57-6.55-5.95,6.91-9.1,16.28-7.68,26.29,2.18,15.43,15.3,27.42,30.86,28.26,10.71.58,20.31-3.95,26.72-11.3-1.71-.21-3.42-.45-5.12-.77-.61-.11-1.23-.23-1.84-.35Z"/>
          <path class="cls-2" d="m186.32,139.26c-.48-16.58-13.18-29.95-29.19-31.83.78,1.85,1.21,3.87,1.21,6,0,.67-.12,1.3-.2,1.94,9.7,1.9,17.69,9.43,19.89,19.22.27,1.18.44,2.35.54,3.51.32,3.81,2.83,7.04,6.51,8.08.22.06.44.13.66.19.44-2.3.65-4.67.58-7.11Z"/>
          <path class="cls-2" d="m142.8,123.76c5.7,0,10.33-4.62,10.33-10.33s-4.62-10.33-10.33-10.33-10.33,4.62-10.33,10.33,4.62,10.33,10.33,10.33Z"/>
        </g>
        <g>
          <path class="cls-1" d="m161.66,241.4c-16.16-3.11-29.07-16.3-31.44-32.86-1.06-7.4-.02-14.51,2.62-20.81,1.73-4.12.36-8.8-3.36-11.27-.09-.06-.17-.12-.26-.18-5.98,8.94-9.03,19.97-7.8,31.67,2.31,21.94,19.71,39.51,41.28,42.4-.75-2.18-1.25-4.48-1.25-6.91,0-.7.14-1.36.21-2.04Z"/>
          <path class="cls-1" d="m182.79,227.3c-8.92,0-16.14,7.23-16.14,16.14s7.23,16.14,16.14,16.14c8.92,0,16.14-7.23,16.14-16.14s-7.23-16.14-16.14-16.14Z"/>
          <path class="cls-1" d="m216.75,197.55c-2.58-23.66-22.71-42.09-46.51-42.63-10.4-.24-20.02,2.85-27.94,8.22,2.36,1.14,4.91,1.92,7.58,2.27,3.04.39,5.96.2,8.73-.4,4.27-1.19,8.84-1.69,13.58-1.33,18.31,1.39,33.45,15.72,35.84,33.93,1.58,11.99-2.38,23.17-9.67,31.34,2.05,2.2,3.59,4.84,4.57,7.75,9.86-9.86,15.47-23.93,13.81-39.15Z"/>
        </g>
      </g>
    </g>
  </g>
</svg>